# xmcd CD database file
#
# Track frame offsets:
#	150
#	35273
#	58075
#	84500
#	115925
#	151855
#	173967
#	206902
#
# Disc length: 3062 seconds
#
# Revision: 0
# Processed by: cddbd v1.5.2PL0 Copyright (c) Steve Scherf et al.
# Submitted via: CDex 1.51
#
DISCID=650bf408
DTITLE=Foxy Moon Baby - Dreamer
DYEAR=2006
DGENRE=Jazz
TTITLE0=Dreamer
TTITLE1=Velma in the Shade
TTITLE2=Native Land
TTITLE3=Eclectic Fanfare
TTITLE4=Tanglewood Bliss
TTITLE5=Home and Away
TTITLE6=CIA
TTITLE7=Mother Discovery
EXTD=YEAR: 2006
EXTT0=
EXTT1=
EXTT2=
EXTT3=
EXTT4=
EXTT5=
EXTT6=
EXTT7=
PLAYORDER=
